<?xml version="1.0" encoding="UTF-8"?>
<!-- Generator: visioncortex VTracer 0.6.12 -->
<svg version="1.1" xmlns="http://www.w3.org/2000/svg" width="320" height="187">
<path d="M0 0 C1.32 0 2.64 0 4 0 C2.073 11.522 2.073 11.522 0 17 C-1.32 17 -2.64 17 -4 17 C-3.45 10.952 -2.096 5.694 0 0 Z " fill="#000000" transform="translate(102,0)"/>
<path d="M0 0 C11.88 0 23.76 0 36 0 C35.333 5.334 34.59 10.291 33.438 15.5 C33.168 16.727 32.899 17.954 32.621 19.219 C32.416 20.137 32.211 21.054 32 22 C34.64 22 37.28 22 40 22 C39.238 30.01 37.149 37.573 35.084 45.332 C34.951 45.846 34.951 45.846 34.277 48.445 C34.032 49.368 33.787 50.292 33.535 51.243 C33 54 33 54 33 60 C39.93 60 46.86 60 54 60 C54.165 59.67 54.165 59.67 55 58 C55.311 57.451 55.621 56.902 55.941 56.337 C57.364 53.197 58.136 49.947 58.945 46.609 C59.12 45.905 59.295 45.2 59.475 44.474 C60.029 42.234 60.577 39.992 61.125 37.75 C61.501 36.226 61.877 34.703 62.254 33.18 C63.174 29.454 64.089 25.728 65 22 C66.98 22 68.96 22 71 22 C69.758 30.084 67.812 37.942 65.677 45.829 C65.461 46.654 65.246 47.478 65.023 48.328 C64.925 48.694 64.925 48.694 64.427 50.544 C64 53 64 53 64 60 C70.93 60 77.86 60 85 60 C85.66 56.37 86.32 52.74 87 49 C87.66 49 88.32 49 89 49 C89.66 46.69 90.32 44.38 91 42 C92.65 42 94.3 42 96 42 C95.856 42.545 95.711 43.091 95.562 43.652 C95.377 44.406 95.191 45.161 95 45.938 C94.907 46.303 94.907 46.303 94.438 48.152 C93.837 52.058 94 56.048 94 60 C100.93 60 107.86 60 115 60 C115.33 58.68 115.66 57.36 116 56 C116.165 56.66 116.165 56.66 117 60 C130.53 60 144.06 60 158 60 C158.33 59.01 158.66 58.02 159 57 C159.33 56.443 159.66 55.886 160 55.312 C161.959 50.782 162 45.88 162 41 C155.73 41 149.46 41 143 41 C143.66 40.01 144.32 39.02 145 38 C145.33 38.33 145.66 38.66 146 39 C146 38.67 146 38.34 146 38 C150.95 38 155.9 38 161 38 C161.33 36.68 161.66 35.36 162 34 C162.348 33.355 162.696 32.711 163.055 32.047 C164.177 29.617 164.203 27.911 164.125 25.25 C164.084 23.848 164.042 22.445 164 21 C159.38 21 154.76 21 150 21 C150.33 20.01 150.66 19.02 151 18 C157.27 17.67 163.54 17.34 170 17 C171.938 9.062 171.938 9.062 172.543 6.559 C173.889 1.111 173.889 1.111 175 0 C176.873 -0.097 178.75 -0.122 180.625 -0.12 C181.846 -0.122 183.068 -0.123 184.326 -0.124 C185.692 -0.121 187.058 -0.117 188.424 -0.114 C189.853 -0.113 191.281 -0.113 192.71 -0.114 C196.6 -0.114 200.491 -0.108 204.381 -0.101 C208.442 -0.095 212.504 -0.095 216.565 -0.093 C224.261 -0.09 231.957 -0.082 239.652 -0.072 C248.412 -0.061 257.171 -0.055 265.93 -0.05 C283.953 -0.04 301.977 -0.022 320 0 C320 20.79 320 41.58 320 63 C314.06 63 308.12 63 302 63 C301.67 63.66 301.34 64.32 301 65 C300.691 65.557 300.381 66.114 300.062 66.688 C298.677 69.703 297.861 72.8 297 76 C295.992 73.983 294.984 71.967 294 69.938 C293 68 293 68 291 65 C291 64.34 291 63.68 291 63 C284.73 63 278.46 63 272 63 C271.67 64.98 271.34 66.96 271 69 C270.34 69 269.68 69 269 69 C268.67 70.32 268.34 71.64 268 73 C264.334 71.328 261.74 69.127 258.781 66.438 C254.377 62.884 250.43 62.613 244.875 62.625 C244.117 62.627 243.358 62.628 242.577 62.63 C233.917 62.818 227.555 65.265 221 71 C220.34 71 219.68 71 219 71 C218.67 68.36 218.34 65.72 218 63 C211.4 63 204.8 63 198 63 C197.34 65.64 196.68 68.28 196 71 C195.34 70.67 194.68 70.34 194 70 C194.33 67.69 194.66 65.38 195 63 C180.48 63 165.96 63 151 63 C150.67 63.99 150.34 64.98 150 66 C149.031 67.356 148.036 68.694 147 70 C146.457 69.59 145.915 69.18 145.355 68.758 C144.64 68.219 143.925 67.68 143.188 67.125 C142.834 66.858 142.834 66.858 141.043 65.508 C136.356 62.048 133.186 61.693 127.5 61.75 C126.728 61.742 125.956 61.735 125.16 61.727 C121.264 61.74 119.31 61.793 116 64 C114.213 64.968 112.421 65.925 110.625 66.875 C106.766 68.96 103.284 71.056 100 74 C100 70.37 100 66.74 100 63 C98.496 63.012 96.991 63.023 95.441 63.035 C93.482 63.045 91.522 63.054 89.562 63.062 C89.066 63.067 89.066 63.067 86.553 63.088 C85.608 63.091 84.664 63.094 83.691 63.098 C82.817 63.103 81.942 63.108 81.041 63.114 C79 63 79 63 78 62 C77.67 62.99 77.34 63.98 77 65 C75.669 66.668 74.335 68.335 73 70 C70.348 73.903 67.798 77.876 65.246 81.846 C64.729 82.635 64.212 83.425 63.68 84.238 C63.213 84.961 62.746 85.683 62.265 86.427 C61.848 86.946 61.43 87.465 61 88 C60.34 88 59.68 88 59 88 C59.206 88.784 59.413 89.567 59.625 90.375 C59.749 91.241 59.873 92.108 60 93 C59.34 93.66 58.68 94.32 58 95 C57.058 89.473 56.879 84.162 56.938 78.562 C56.942 77.736 56.947 76.909 56.951 76.057 C56.963 74.038 56.981 72.019 57 70 C56.34 70 55.68 70 55 70 C55 67.69 55 65.38 55 63 C47.41 63 39.82 63 32 63 C31.34 66.63 30.68 70.26 30 74 C28 78 28 78 27.01 79.747 C25.523 83.064 24.713 86.539 23.836 90.055 C23.737 90.444 23.737 90.444 23.239 92.416 C22.825 94.061 22.413 95.707 22.004 97.353 C21.378 99.861 20.74 102.366 20.102 104.871 C19.7 106.474 19.299 108.077 18.898 109.68 C18.708 110.424 18.517 111.168 18.321 111.934 C18.234 112.288 18.234 112.288 17.794 114.078 C17.641 114.692 17.487 115.306 17.328 115.939 C16.905 118.595 17 121.311 17 124 C23.93 124 30.86 124 38 124 C38.33 123.34 38.66 122.68 39 122 C41.062 120.875 41.062 120.875 43 120 C43.33 121.32 43.66 122.64 44 124 C48.62 124 53.24 124 58 124 C58 124.33 58 124.66 58 125 C53.545 125.165 53.545 125.165 31 126 C31.165 126.33 31.165 126.33 32 128 C31.67 128.33 31.67 128.33 30 130 C27.406 133.207 25.445 136.635 23.453 140.242 C23.119 140.847 22.785 141.452 22.44 142.075 C21.733 143.357 21.027 144.639 20.322 145.923 C19.271 147.836 18.214 149.746 17.156 151.656 C12.551 160.001 8.202 168.445 4 177 C3 179 3 179 0 181 C0 121.27 0 61.54 0 0 Z M33 4 C34 7 34 7 34 7 Z M32 8 C33 11 33 11 33 11 Z M31 12 C32 15 32 15 32 15 Z M30 16 C31 20 31 20 31 20 Z M165 21 C165 22.65 165 24.3 165 26 C165.33 26 165.66 26 166 26 C166 24.35 166 22.7 166 21 C165.67 21 165.34 21 165 21 Z M163 41 C164 45 164 45 164 45 Z M87 54 C88 57 88 57 88 57 Z M92 55 C93 59 93 59 93 59 Z M62 57 C63 60 63 60 63 60 Z M86 57 C87 60 87 60 87 60 Z M32 61 C32 61.33 32 61.66 32 62 C39.26 62 46.52 62 54 62 C54 61.67 54 61.34 54 61 C46.74 61 39.48 61 32 61 Z M198 61 C198 61.33 198 61.66 198 62 C204.6 62 211.2 62 218 62 C218 61.67 218 61.34 218 61 C211.4 61 204.8 61 198 61 Z M242 61 C242 61.33 242 61.66 242 62 C243.98 62 245.96 62 248 62 C248 61.67 248 61.34 248 61 C246.02 61 244.04 61 242 61 Z M272 61 C272 61.33 272 61.66 272 62 C278.27 62 284.54 62 291 62 C291 61.67 291 61.34 291 61 C284.73 61 278.46 61 272 61 Z M101 64 C102 67 102 67 102 67 Z M219 64 C220 67 220 67 220 67 Z M29 66 C30 69 30 69 30 69 Z M28 70 C29 73 29 73 29 73 Z M58 79 C58 81.64 58 84.28 58 87 C58.33 87 58.66 87 59 87 C59 84.36 59 81.72 59 79 C58.67 79 58.34 79 58 79 Z " fill="#000000" transform="translate(0,0)"/>
<path d="M0 0 C0.66 -0.005 1.32 -0.01 2 -0.016 C4 0.25 4 0.25 8 2.25 C2.72 2.25 -2.56 2.25 -8 2.25 C-3.446 -0.027 -3.446 -0.027 0 0 Z " fill="#000000" transform="translate(128,61.75)"/>
<path d="M0 0 C0.66 0.33 1.32 0.66 2 1 C1.67 3.64 1.34 6.28 1 9 C0.34 8.67 -0.32 8.34 -1 8 C-0.67 5.36 -0.34 2.72 0 0 Z " fill="#000000" transform="translate(192,74)"/>
<path d="M0 0 C0.33 0 0.66 0 1 0 C1 36.3 1 72.6 1 110 C-13.85 110 -28.7 110 -44 110 C-40.993 97.973 -39.063 91.149 -32.312 81.688 C-30.952 79.714 -29.594 77.739 -28.238 75.762 C-27.641 74.916 -27.043 74.07 -26.427 73.198 C-25 71 -25 71 -24 68 C-22.673 66.329 -21.338 64.663 -20 63 C-18.897 61.493 -17.815 59.971 -16.75 58.438 C-16.229 57.694 -15.708 56.95 -15.172 56.184 C-14 54 -14 54 -14 50 C-20.6 50 -27.2 50 -34 50 C-34 49.67 -34 49.34 -34 49 C-27.07 49 -20.14 49 -13 49 C-13 47.35 -13 45.7 -13 44 C-12.34 44 -11.68 44 -11 44 C-9.185 36.74 -9.185 36.74 0 0 Z M-13 51 C-12 53 -12 53 -12 53 Z " fill="#000000" transform="translate(319,77)"/>
<path d="M0 0 C6.625 0.75 6.625 0.75 10 3 C10.5 6.312 10.5 6.312 10 10 C7.625 12.938 7.625 12.938 5 15 C4.34 15 3.68 15 3 15 C2.67 15.66 2.34 16.32 2 17 C0.02 16.34 -1.96 15.68 -4 15 C-4.9 11.483 -5.342 9.684 -3.688 6.375 C-3.131 5.591 -2.574 4.808 -2 4 C-1.319 2.674 -0.647 1.343 0 0 Z " fill="#000000" transform="translate(118,85)"/>
<path d="M0 0 C3.96 0 7.92 0 12 0 C12 0.33 12 0.66 12 1 C8.37 1 4.74 1 1 1 C2 2 2 2 4.285 2.098 C5.202 2.086 6.118 2.074 7.062 2.062 C7.982 2.053 8.901 2.044 9.848 2.035 C10.558 2.024 11.268 2.012 12 2 C11.879 2.489 11.879 2.489 11.266 4.966 C10.366 8.603 9.473 12.241 8.582 15.879 C8.196 17.453 7.808 19.026 7.418 20.599 C6.858 22.862 6.303 25.126 5.75 27.391 C5.575 28.092 5.4 28.793 5.22 29.515 C4.419 32.818 4 35.573 4 39 C10.93 39 17.86 39 25 39 C25.66 37.68 26.32 36.36 27 35 C27.667 33.667 28.333 32.333 29 31 C31.747 32.162 33.444 33.403 35.688 35.438 C39.315 38.589 43.43 39.751 48 41 C45.241 43.759 42.129 44.567 38.508 45.902 C36.007 46.997 34.162 48.358 32 50 C31.34 50 30.68 50 30 50 C30 48.02 30 46.04 30 44 C23.73 43.67 17.46 43.34 11 43 C10.67 43.66 10.34 44.32 10 45 C9.841 45.291 9.841 45.291 9.039 46.766 C7.824 49.379 7.105 51.964 6.375 54.75 C6.115 55.735 5.854 56.72 5.586 57.734 C5.489 58.108 5.489 58.108 5 60 C2.886 56.829 2.605 54.661 2.215 50.934 C1.892 48.031 1.304 45.607 0 43 C-6.27 43.33 -12.54 43.66 -19 44 C-20.65 50.6 -22.3 57.2 -24 64 C-24.66 63.01 -25.32 62.02 -26 61 C-24.35 55.06 -22.7 49.12 -21 43 C-34.53 43 -48.06 43 -62 43 C-62.33 43.99 -62.66 44.98 -63 46 C-63.651 47.341 -64.315 48.676 -65 50 C-67.516 48.839 -69.562 47.588 -71.812 45.938 C-78.727 41.734 -86.283 43.085 -94 44 C-95.002 44.116 -96.003 44.232 -97.035 44.352 C-106.02 46.317 -113.882 53.597 -119 61 C-119.586 63.02 -119.586 63.02 -120 65 C-120.637 66.348 -121.296 67.686 -122 69 C-123.015 60.285 -123.08 51.762 -123 43 C-130.26 43 -137.52 43 -145 43 C-145 42.67 -145 42.34 -145 42 C-136.42 42 -127.84 42 -119 42 C-118.67 40.68 -118.34 39.36 -118 38 C-117.505 37.835 -117.505 37.835 -115 37 C-114.34 36.34 -113.68 35.68 -113 35 C-113 36.65 -113 38.3 -113 40 C-106.07 40 -99.14 40 -92 40 C-91.67 37.03 -91.34 34.06 -91 31 C-90.34 29.68 -89.68 28.36 -89 27 C-86.486 29.514 -83.982 32.019 -81.562 34.625 C-75.543 40.204 -70.574 40.292 -62.633 40.105 C-61.764 40.071 -60.895 40.036 -60 40 C-60 40.33 -60 40.66 -60 41 C-43.17 41 -26.34 41 -9 41 C-8.67 39.68 -8.34 38.36 -8 37 C-7.648 36.339 -7.296 35.679 -6.934 34.998 C-5.635 32.218 -6.048 29.661 -6.117 26.653 C-5.887 21.438 -4.344 16.459 -3 11.438 C-2.714 10.333 -2.428 9.229 -2.133 8.092 C-1.432 5.392 -0.717 2.696 0 0 Z M0 5 C1 8 1 8 1 8 Z M-1 9 C0 12 0 12 0 12 Z M-2 13 C-1 16 -1 16 -1 16 Z M-3 17 C-2 20 -2 20 -2 20 Z M-4 21 C-3 25 -3 25 -3 25 Z M-5 25 C-4 29 -4 29 -4 29 Z M-90 32 C-89 35 -89 35 -89 35 Z M-91 36 C-90 39 -90 39 -90 39 Z M-113 41 C-113 41.33 -113 41.66 -113 42 C-105.41 42.33 -97.82 42.66 -90 43 C-93.204 40.864 -93.996 40.758 -97.668 40.805 C-98.561 40.811 -99.453 40.818 -100.373 40.824 C-101.302 40.841 -102.231 40.858 -103.188 40.875 C-104.128 40.884 -105.068 40.893 -106.037 40.902 C-108.358 40.926 -110.679 40.959 -113 41 Z M-89 41 C-89 41.33 -89 41.66 -89 42 C-86.69 42 -84.38 42 -82 42 C-82 41.67 -82 41.34 -82 41 C-84.31 41 -86.62 41 -89 41 Z M5 41 C5 41.33 5 41.66 5 42 C12.92 42 20.84 42 29 42 C29 41.67 29 41.34 29 41 C21.08 41 13.16 41 5 41 Z M-122 44 C-122 48.29 -122 52.58 -122 57 C-121.67 57 -121.34 57 -121 57 C-121 52.71 -121 48.42 -121 44 C-121.33 44 -121.66 44 -122 44 Z M3 49 C4 52 4 52 4 52 Z M4 53 C5 56 5 56 5 56 Z " fill="#000000" transform="translate(178,84)"/>
<path d="M0 0 C-1.291 7.95 -1.291 7.95 -3.688 11.5 C-6.81 13.525 -9.305 13.866 -13 14 C-13.99 13.34 -14.98 12.68 -16 12 C-16.5 8.688 -16.5 8.688 -16 5 C-10.928 -1.305 -7.404 -1.092 0 0 Z " fill="#000000" transform="translate(246,87)"/>
<path d="M0 0 C1.645 4.577 0.004 8.236 -1.309 12.734 C-2 16 -2 16 -2 24 C4.6 24 11.2 24 18 24 C18 24.33 18 24.66 18 25 C2.82 25 -12.36 25 -28 25 C-25.453 23.302 -23.142 22.131 -20.375 20.875 C-10.77 16.072 -4.931 9.437 0 0 Z M-4 20 C-3 24 -3 24 -3 24 Z " fill="#000000" transform="translate(150,100)"/>
<path d="M0 0 C2 1 2 1 2.633 2.848 C2.714 3.213 2.714 3.213 3.125 5.062 C3.209 5.429 3.209 5.429 3.633 7.285 C3.754 7.851 3.875 8.417 4 9 C4.66 9 5.32 9 6 9 C6 10.32 6 11.64 6 13 C4.365 14.372 2.693 15.701 1 17 C-0.984 19.691 -0.984 19.691 -2.75 22.562 C-3.343 23.513 -3.936 24.463 -4.547 25.441 C-6 28 -6 28 -7 31 C-7.33 31.66 -7.66 32.32 -8 33 C-9.998 27.006 -10.533 21.301 -11 15 C-17.93 15 -24.86 15 -32 15 C-32.33 16.32 -32.66 17.64 -33 19 C-33.33 18.34 -33.66 17.68 -34 17 C-36.504 16.148 -36.504 16.148 -39.562 15.375 C-40.574 15.115 -41.586 14.854 -42.629 14.586 C-43.411 14.393 -44.194 14.199 -45 14 C-41.242 11.495 -37.239 9.614 -33.182 7.654 C-29.79 5.989 -27.054 4.29 -24 2 C-24 5.3 -24 8.6 -24 12 C-17.4 12 -10.8 12 -4 12 C-3.67 10.68 -3.34 9.36 -3 8 C-2.333 6.667 -1.667 5.333 -1 4 C-0.632 2.676 -0.288 1.344 0 0 Z M-26 9 C-25 12 -25 12 -25 12 Z M-32 13 C-32 13.33 -32 13.66 -32 14 C-23.09 14 -14.18 14 -5 14 C-5 13.67 -5 13.34 -5 13 C-13.91 13 -22.82 13 -32 13 Z M-10 16 C-9 19 -9 19 -9 19 Z M-9 19 C-9 20.98 -9 22.96 -9 25 C-8.67 25 -8.34 25 -8 25 C-8 23.02 -8 21.04 -8 19 C-8.33 19 -8.66 19 -9 19 Z " fill="#000000" transform="translate(281,112)"/>
<path d="M0 0 C5.61 0 11.22 0 17 0 C17 0.33 17 0.66 17 1 C11.39 1 5.78 1 0 1 C0 0.67 0 0.34 0 0 Z " fill="#000000" transform="translate(288,124)"/>
<path d="M0 0 C5.61 0 11.22 0 17 0 C17 0.33 17 0.66 17 1 C11.39 1 5.78 1 0 1 C0 0.67 0 0.34 0 0 Z " fill="#000000" transform="translate(135,146)"/>
<path d="M0 0 C5.61 0 11.22 0 17 0 C16 4 16 4 14 6 C14 4.35 14 2.7 14 1 C9.38 1 4.76 1 0 1 C0 0.67 0 0.34 0 0 Z " fill="#000000" transform="translate(134,148)"/>
<path d="M0 0 C0.33 0.66 0.66 1.32 1 2 C3.062 3.125 3.062 3.125 5 4 C5 4.33 5 4.66 5 5 C2.69 5 0.38 5 -2 5 C-2.049 5.615 -2.098 6.23 -2.148 6.863 C-2.223 7.672 -2.298 8.48 -2.375 9.312 C-2.445 10.113 -2.514 10.914 -2.586 11.738 C-3 14 -3 14 -5 17 C-6.98 16.01 -8.96 15.02 -11 14 C-11.42 9.711 -11.521 7.69 -8.875 4.188 C-5.936 1.951 -3.557 0.91 0 0 Z M-4 7 C-3 9 -3 9 -3 9 Z M-5 9 C-4 13 -4 13 -4 13 Z " fill="#000000" transform="translate(89,149)"/>
<path d="M0 0 C0.99 0.33 1.98 0.66 3 1 C3 1.99 3 2.98 3 4 C8.61 4 14.22 4 20 4 C20.165 4.825 20.165 4.825 21 9 C20.71 8.99 20.71 8.99 19.243 8.937 C16.6 8.853 13.957 8.801 11.312 8.75 C10.4 8.716 9.488 8.683 8.549 8.648 C2.886 8.566 0.26 8.975 -4 13 C-6.843 13.549 -9.067 13.244 -12 13 C-13 12 -13 12 -13.375 8.75 C-13 5 -13 5 -11 2.062 C-6.915 -0.746 -4.888 -0.473 0 0 Z " fill="#000000" transform="translate(231,151)"/>
<path d="M0 0 C6.27 0 12.54 0 19 0 C19 0.33 19 0.66 19 1 C12.73 1 6.46 1 0 1 C0 0.67 0 0.34 0 0 Z " fill="#000000" transform="translate(88,155)"/>
<path d="M0 0 C0.66 0.99 1.32 1.98 2 3 C1.67 3.99 1.34 4.98 1 6 C-4.28 5.67 -9.56 5.34 -15 5 C-15 4.67 -15 4.34 -15 4 C-10.05 4 -5.1 4 0 4 C0 2.68 0 1.36 0 0 Z " fill="#000000" transform="translate(145,162)"/>
<path d="M0 0 C5.61 0 11.22 0 17 0 C17 0.33 17 0.66 17 1 C11.39 1 5.78 1 0 1 C0 0.67 0 0.34 0 0 Z " fill="#000000" transform="translate(129,168)"/>
<path d="M0 0 C1.676 4.091 0.241 7.715 -0.938 11.75 C-1.133 12.447 -1.328 13.145 -1.529 13.863 C-2.011 15.578 -2.504 17.289 -3 19 C-3.66 19 -4.32 19 -5 19 C-4.359 16.02 -3.712 13.041 -3.062 10.062 C-2.88 9.212 -2.698 8.362 -2.51 7.486 C-2.333 6.677 -2.155 5.869 -1.973 5.035 C-1.891 4.661 -1.891 4.661 -1.481 2.766 C-1 1 -1 1 0 0 Z " fill="#000000" transform="translate(147,168)"/>
<path d="M0 0 C2 3 2 3 1.32 6.793 C0.937 8.262 0.536 9.726 0.125 11.188 C-0.576 13.766 -1.278 16.344 -2 19 C-7.94 19 -13.88 19 -20 19 C-17.027 16.621 -14.147 14.377 -11.062 12.188 C-6.63 8.888 -2.498 4.996 0 0 Z " fill="#000000" transform="translate(252,168)"/>
<path d="M0 0 C2.594 3.891 2.632 6.362 3 11 C2.67 11.66 2.34 12.32 2 13 C0.02 13 -1.96 13 -4 13 C-3 3 -3 3 0 0 Z M0 4 C1 7 1 7 1 7 Z M1 8 C2 11 2 11 2 11 Z " fill="#000000" transform="translate(170,174)"/>
<path d="M0 0 C1.336 0.975 2.669 1.955 4 2.938 C4.371 3.21 4.371 3.21 6.25 4.59 C6.539 4.823 6.539 4.823 8 6 C8 6.33 8 6.66 8 7 C4.7 7 1.4 7 -2 7 C-1.34 4.69 -0.68 2.38 0 0 Z " fill="#000000" transform="translate(197,180)"/>
<path d="M0 0 C0.562 1.938 0.562 1.938 1 4 C0 5 0 5 -3.562 5.062 C-4.697 5.042 -5.831 5.021 -7 5 C-4.703 3.257 -2.401 1.601 0 0 Z " fill="#000000" transform="translate(99,182)"/>
<path d="M0 0 C3.96 0 7.92 0 12 0 C12 0.66 12 1.32 12 2 C8.04 2 4.08 2 0 2 C0 1.34 0 0.68 0 0 Z " fill="#000000" transform="translate(23,185)"/>
</svg>
