<?xml version="1.0" encoding="UTF-8"?>
<!-- Generator: visioncortex VTracer 0.6.12 -->
<svg version="1.1" xmlns="http://www.w3.org/2000/svg" width="320" height="187">
<path d="M0 0 C20.46 0 40.92 0 62 0 C60.7761 6.7315 59.5271 13.346 58 20 C60.97 20 63.94 20 67 20 C67.1096 19.3104 67.2191 18.6207 67.332 17.9102 C67.4906 16.9704 67.6491 16.0307 67.8125 15.0625 C67.8879 14.6042 67.8879 14.6042 68.2695 12.2852 C69.1985 8.1075 70.6466 4.0601 72 0 C78.6 0 85.2 0 92 0 C90.1944 7.398 88.3869 14.7954 86.5757 22.192 C85.7348 25.6264 84.8948 29.061 84.0569 32.4961 C83.094 36.4434 82.1272 40.3897 81.1602 44.3359 C80.8591 45.5724 80.558 46.8089 80.2478 48.0829 C79.9676 49.2239 79.6874 50.3649 79.3987 51.5405 C79.2754 52.0446 79.2754 52.0446 78.6517 54.5956 C78 57 78 57 77 59 C70.4 59 63.8 59 57 59 C58.32 53.06 59.64 47.12 61 41 C58.03 40.67 55.06 40.34 52 40 C51.9394 40.3506 51.9394 40.3506 51.6328 42.125 C51.4652 43.0737 51.2977 44.0225 51.125 45 C50.9626 45.9281 50.8002 46.8563 50.6328 47.8125 C49.8868 51.5702 48.9292 55.2833 48 59 C41.4 59 34.8 59 28 59 C28.6893 53.4853 29.4573 48.7343 30.8477 43.4375 C31.0238 42.7607 31.2 42.084 31.3815 41.3867 C31.9371 39.2565 32.4996 37.1283 33.0625 35 C33.4438 33.5431 33.8247 32.0861 34.2051 30.6289 C35.1314 27.0845 36.064 23.5418 37 20 C33.37 20 29.74 20 26 20 C25.8731 21.164 25.7462 22.328 25.6155 23.5273 C25.1002 27.635 24.2043 31.5549 23.1523 35.5625 C22.9762 36.2393 22.8 36.916 22.6185 37.6133 C22.0629 39.7435 21.5004 41.8717 20.9375 44 C20.5562 45.4569 20.1753 46.9139 19.7949 48.3711 C18.8694 51.9157 17.9345 55.4577 17 59 C10.4 59 3.8 59 -3 59 C-1.5344 50.3175 0.4494 41.8425 2.625 33.3125 C2.9535 32.0138 3.2816 30.7149 3.6094 29.416 C4.403 26.2765 5.1999 23.1379 6 20 C2.37 20 -1.26 20 -5 20 C-4.3574 17.0409 -3.7111 14.0828 -3.0625 11.125 C-2.9713 10.7041 -2.9713 10.7041 -2.5098 8.5742 C-2.3325 7.7686 -2.1553 6.9629 -1.9727 6.1328 C-1.8915 5.761 -1.8915 5.761 -1.4807 3.8794 C-1 2 -1 2 0 0 Z " fill="#000000" transform="translate(37,0)"/>
<path d="M0 0 C13.2 0 26.4 0 40 0 C38.68 5.94 37.36 11.88 36 18 C29.4 18 22.8 18 16 18 C16 19.32 16 20.64 16 22 C21.28 22 26.56 22 32 22 C31.6803 23.2272 31.6803 23.2272 30.0625 29.4375 C29.9626 29.8245 29.9626 29.8245 29.4573 31.783 C28.1111 36.8889 28.1111 36.8889 27 38 C24.4695 38.0731 21.967 38.0925 19.4375 38.0625 C18.7266 38.058 18.0157 38.0535 17.2832 38.0488 C15.5221 38.037 13.761 38.0191 12 38 C11.67 38.99 11.34 39.98 11 41 C16.94 41 22.88 41 29 41 C31.7203 46.4406 27.4753 53.0989 26 59 C12.8 59 -0.4 59 -14 59 C-11.75 46.625 -11.75 46.625 -10.6714 42.345 C-10.4313 41.3848 -10.1912 40.4246 -9.9438 39.4354 C-9.8177 38.9388 -9.8177 38.9388 -9.1797 36.4258 C-8.9162 35.3759 -8.6526 34.3261 -8.3811 33.2444 C-7.5491 29.9329 -6.7121 26.6227 -5.875 23.3125 C-5.3057 21.0502 -4.7366 18.7878 -4.168 16.5254 C-2.783 11.0158 -1.3914 5.508 0 0 Z " fill="#000000" transform="translate(132,0)"/>
<path d="M0 0 C7.26 0 14.52 0 22 0 C23.4641 7.425 24.509 14.8147 25.3022 22.3357 C25.8972 27.7944 25.8972 27.7944 27 30 C28.169 28.2056 29.3372 26.4106 30.5012 24.613 C31.5083 23.0672 32.5253 21.5277 33.5515 19.9944 C35.9269 16.4083 38.1205 12.9714 39.7383 8.9766 C41.4908 5.0367 42.6222 2.717 46 0 C53.2259 -1.5702 60.7125 -0.735 68 0 C66.68 5.94 65.36 11.88 64 18 C64.99 16.8038 65.98 15.6075 67 14.375 C74.1452 6.2866 82.1405 0.985 93.0547 -0.3828 C100.4785 -0.6662 106.8395 0.5524 112.6641 5.3789 C114.0625 6.75 114.0625 6.75 116 9 C116.99 6.03 117.98 3.06 119 0 C133.19 0 147.38 0 162 0 C161.3721 5.0231 160.8315 9.1908 159.5 13.9375 C159.2422 14.8746 158.9844 15.8118 158.7188 16.7773 C158 19 158 19 157 20 C155.1471 20.0723 153.2917 20.0838 151.4375 20.0625 C150.4256 20.0535 149.4137 20.0445 148.3711 20.0352 C147.5886 20.0236 146.8062 20.012 146 20 C145.7693 21.0673 145.5385 22.1347 145.3008 23.2344 C143.4169 31.8719 141.4377 40.4809 139.3125 49.0625 C139.0983 49.9368 138.884 50.8111 138.6633 51.7119 C137.1201 57.8799 137.1201 57.8799 136 59 C134.5843 59.0865 133.1644 59.107 131.7461 59.0977 C130.8921 59.0944 130.0381 59.0912 129.1582 59.0879 C128.2604 59.0795 127.3625 59.0711 126.4375 59.0625 C125.5358 59.058 124.6341 59.0535 123.7051 59.0488 C121.47 59.037 119.235 59.0205 117 59 C117.6527 51.8744 119.3062 45.0568 121.0112 38.1162 C121.5037 36.11 121.9887 34.102 122.4727 32.0938 C124.8622 22.2756 124.8622 22.2756 126 20 C123.69 20 121.38 20 119 20 C119.1031 21.2375 119.2063 22.475 119.3125 23.75 C119.2679 33.2156 114.6095 41.3601 108.168 48.0312 C99.2799 56.1026 90.2628 59.7541 78.2188 59.4023 C72.0386 58.6298 67.2148 56.5403 63.0859 51.8047 C60.5524 48.1665 59.0847 45.3388 58 41 C56.35 46.94 54.7 52.88 53 59 C46.4 59 39.8 59 33 59 C33.495 56.525 33.495 56.525 36 44 C35.7622 44.5414 35.7622 44.5414 34.5586 47.2812 C29.2786 58.1473 29.2786 58.1473 25.1016 59.7104 C20.6694 60.3313 16.3951 59.7817 12 59 C11.2134 53.8903 10.9096 49.1508 11 44 C10.34 44 9.68 44 9 44 C8.8762 45.1756 8.7525 46.3512 8.625 47.5625 C8.1936 51.6611 7.1829 54.8597 6 59 C-0.6 59 -7.2 59 -14 59 C-12.6861 51.3813 -11.0818 43.9174 -9.1797 36.4258 C-8.9162 35.3759 -8.6526 34.3261 -8.3811 33.2444 C-7.5491 29.9329 -6.7121 26.6227 -5.875 23.3125 C-5.3057 21.0502 -4.7366 18.7878 -4.168 16.5254 C-2.783 11.0158 -1.3914 5.508 0 0 Z M80 26 C78.4541 29.0917 78.7064 31.5943 79 35 C80.5625 37.4375 80.5625 37.4375 83 39 C87.2182 39.6249 89.4283 39.2858 93.25 37.375 C96.3326 34.7127 97.6908 32.8507 99 29 C98.8771 25.8671 98.4789 23.8452 96.9375 21.125 C90.0375 17.1186 84.6565 20.7902 80 26 Z " fill="#000000" transform="translate(32,64)"/>
<path d="M0 0 C0.7908 0.0052 1.5815 0.0105 2.3962 0.0159 C2.8232 0.0175 2.8232 0.0175 4.9841 0.0256 C5.882 0.034 6.7798 0.0424 7.7048 0.051 C8.6065 0.0555 9.5082 0.06 10.4373 0.0647 C12.6723 0.0765 14.9073 0.093 17.1423 0.1135 C16.1788 9.5235 16.1788 9.5235 15.1423 14.1135 C15.6992 13.5824 16.2561 13.0513 16.8298 12.5042 C21.6424 8.0493 26.0655 4.5965 32.1423 2.1135 C33.0498 1.701 33.9573 1.2885 34.8923 0.8635 C42.9586 -0.9979 50.7499 -0.6475 58.1423 3.1135 C62.2187 6.6464 65.1675 10.6513 68.1423 15.1135 C69.4623 10.1635 70.7823 5.2135 72.1423 0.1135 C78.4123 0.1135 84.6823 0.1135 91.1423 0.1135 C93.1223 6.7135 95.1023 13.3135 97.1423 20.1135 C98.7923 13.5135 100.4423 6.9135 102.1423 0.1135 C108.0823 0.1135 114.0223 0.1135 120.1423 0.1135 C117.7317 12.8906 114.646 25.449 111.4548 38.051 C110.9382 40.1024 110.4219 42.1538 109.906 44.2053 C108.6552 49.1757 107.4 54.1449 106.1423 59.1135 C100.2023 59.1135 94.2623 59.1135 88.1423 59.1135 C85.6023 52.3402 83.8098 46.1011 82.1423 39.1135 C80.1623 45.7135 78.1823 52.3135 76.1423 59.1135 C70.2023 59.1135 64.2623 59.1135 58.1423 59.1135 C58.7691 54.0995 59.4137 49.1102 60.1423 44.1135 C59.9232 44.3675 59.9232 44.3675 58.8142 45.6526 C52.15 52.8857 43.4325 58.572 33.408 59.3167 C26.0693 59.4307 19.7173 59.5115 14.1697 54.2385 C11.5661 51.3302 9.308 48.362 7.1423 45.1135 C6.4823 47.4235 6.4823 47.4235 3.1423 59.1135 C-3.4577 59.1135 -10.0577 59.1135 -16.8577 59.1135 C-14.201 46.9325 -11.3692 34.8139 -8.3384 22.7207 C-7.6562 19.9953 -6.9805 17.2683 -6.3049 14.5413 C-5.8711 12.8035 -5.4368 11.0659 -5.0022 9.3284 C-4.8012 8.515 -4.6001 7.7017 -4.393 6.8638 C-2.7044 0.1653 -2.7044 0.1653 0 0 Z M28.2048 26.426 C26.7674 30.062 27.1703 32.3641 28.1423 36.1135 C29.2048 38.051 29.2048 38.051 31.1423 39.1135 C35.2185 39.7249 37.6537 40.0443 41.1853 37.8362 C44.9521 34.6596 46.9857 32.8053 47.4548 27.7385 C47.1423 24.1135 47.1423 24.1135 45.5798 21.676 C38.851 17.3627 32.8368 20.8976 28.2048 26.426 Z M61.1423 41.1135 C62.1423 43.1135 62.1423 43.1135 62.1423 43.1135 Z " fill="#000000" transform="translate(199.857666015625,63.886474609375)"/>
<path d="M0 0 C7.26 0 14.52 0 22 0 C22.6351 3.8108 23.144 7.1676 23.3164 10.9609 C23.3583 11.8439 23.4002 12.727 23.4434 13.6367 C23.4827 14.5404 23.522 15.444 23.5625 16.375 C23.6057 17.3018 23.6489 18.2287 23.6934 19.1836 C23.7988 21.4556 23.9009 23.7277 24 26 C24.176 25.6436 24.176 25.6436 25.0664 23.8398 C30.6706 12.9679 37.727 5.6594 49.25 1.1875 C56.5544 -1.0202 65.0783 -1.2495 72.1758 1.8008 C75.8424 4.2112 78.3057 7.576 81 11 C81.99 7.37 82.98 3.74 84 0 C97.2 0 110.4 0 124 0 C122.68 5.94 121.36 11.88 120 18 C113.4 18 106.8 18 100 18 C100 19.32 100 20.64 100 22 C105.28 22 110.56 22 116 22 C114.68 26.95 113.36 31.9 112 37 C109.36 37.165 109.36 37.165 96 38 C95.67 38.99 95.34 39.98 95 41 C101.27 41 107.54 41 114 41 C113.34 43.97 113.34 43.97 110 59 C96.8 59 83.6 59 70 59 C70.66 55.37 71.32 51.74 72 48 C70.7419 49.0725 69.4838 50.145 68.1875 51.25 C59.6035 57.8624 50.7727 60.2204 40 59 C33.7001 57.7188 30.2144 54.7412 26 50 C25.67 52.97 25.34 55.94 25 59 C18.4 59 11.8 59 5 59 C5 57.68 5 56.36 5 55 C2.5399 55.0868 0.0836 55.1936 -2.375 55.3125 C-3.0737 55.3351 -3.7723 55.3576 -4.4922 55.3809 C-6.5234 55.4883 -6.5234 55.4883 -10 56 C-10.66 56.99 -11.32 57.98 -12 59 C-14.063 59.3406 -14.063 59.3406 -16.5703 59.293 C-17.4662 59.2833 -18.3621 59.2736 -19.2852 59.2637 C-19.7537 59.2511 -19.7537 59.2511 -22.125 59.1875 C-22.5974 59.1807 -22.5974 59.1807 -24.9883 59.1465 C-27.3261 59.1111 -29.6628 59.0617 -32 59 C-26.5684 47.6937 -20.557 36.7803 -14.3438 25.8867 C-9.4579 17.3151 -4.7377 8.6542 0 0 Z M46 24 C43.7926 26.7961 43.0666 28.5338 42.5625 32.0625 C43 35 43 35 44.5 37.375 C48.1325 39.7361 50.7184 39.2854 55 39 C55.33 35.7 55.66 32.4 56 29 C62.93 29 69.86 29 77 29 C77.33 27.35 77.66 25.7 78 24 C72.72 24 67.44 24 62 24 C61.67 23.01 61.34 22.02 61 21 C55.3157 18.1579 50.5431 20.1796 46 24 Z M3 31 C1.68 33.64 0.36 36.28 -1 39 C0.65 39 2.3 39 4 39 C4 36.36 4 33.72 4 31 C3.67 31 3.34 31 3 31 Z " fill="#000000" transform="translate(32,128)"/>
<path d="M0 0 C6.27 0 12.54 0 19 0 C19.825 3.135 19.825 3.135 24 19 C25.9372 15.1256 27.0632 11.4091 28.125 7.25 C28.7438 4.8575 29.3625 2.465 30 0 C35.94 0 41.88 0 48 0 C47.34 3.96 46.68 7.92 46 12 C46.9487 11.1131 47.8975 10.2262 48.875 9.3125 C57.9339 1.5267 67.2841 -0.8562 79 0 C83.5411 1.062 87.4687 2.9101 91 6 C91 4.02 91 2.04 91 0 C97.27 0 103.54 0 110 0 C111.2654 4.4289 112.3507 8.4574 113.125 12.9375 C113.2926 13.8953 113.4602 14.853 113.6328 15.8398 C113.754 16.5527 113.8752 17.2655 114 18 C114.1462 17.7629 114.1462 17.7629 114.8862 16.563 C116.213 14.4152 117.5439 12.2701 118.875 10.125 C119.3352 9.3786 119.7954 8.6323 120.2695 7.8633 C120.7143 7.1479 121.159 6.4324 121.6172 5.6953 C122.0257 5.0355 122.4341 4.3756 122.855 3.6958 C124 2 124 2 126 0 C128.063 -0.2271 128.063 -0.2271 130.5703 -0.1953 C131.4662 -0.1889 132.3621 -0.1824 133.2852 -0.1758 C134.2223 -0.159 135.1595 -0.1423 136.125 -0.125 C137.0699 -0.116 138.0148 -0.107 138.9883 -0.0977 C141.3258 -0.074 143.6628 -0.0411 146 0 C145.6107 0.6084 145.2214 1.2169 144.8203 1.8438 C142.0934 6.1163 139.3738 10.3923 136.6953 14.6953 C136.4962 15.015 136.4962 15.015 135.4883 16.6331 C134.6527 17.9772 133.8194 19.3228 132.9883 20.6697 C130.757 24.2664 128.4696 27.8008 126.0547 31.2773 C119.7405 40.4568 116.2357 48.0344 114 59 C107.4 59 100.8 59 94 59 C95 51 95 51 95.5625 49 C96.7203 43.7072 96.0503 38.2517 95 33 C94.5256 34.1138 94.0512 35.2275 93.5625 36.375 C88.1948 46.9974 79.4857 53.9503 68.625 58.375 C60.8628 59.7133 51.8841 60.496 45 56 C42.3711 53.542 40.0246 50.98 38 48 C38 47.34 38 46.68 38 46 C37.34 46 36.68 46 36 46 C35.9381 46.6084 35.9381 46.6084 35.625 49.6875 C35.2547 53.3289 34.4485 55.3787 33 59 C27.06 59 21.12 59 15 59 C13.35 52.73 11.7 46.46 10 40 C6.625 50.125 6.625 50.125 5.3125 54.5625 C4.8794 56.0269 4.4462 57.4913 4 59 C-1.94 59 -7.88 59 -14 59 C-12.875 50 -12.875 50 -11.6931 45.4102 C-11.4329 44.3897 -11.1727 43.3692 -10.9046 42.3179 C-10.765 41.7807 -10.765 41.7807 -10.0586 39.0625 C-9.7715 37.9418 -9.4843 36.8211 -9.1885 35.6665 C-8.2761 32.1098 -7.3569 28.5549 -6.4375 25 C-5.8153 22.5795 -5.1936 20.159 -4.5723 17.7383 C-3.0533 11.8242 -1.5283 5.9117 0 0 Z M59 24 C56.7633 27.319 55.9839 29.1794 56.0625 33.1875 C57 36 57 36 58.6875 37.875 C61.7704 39.3748 63.5988 39.4762 67 39 C72.7077 35.8769 72.7077 35.8769 74 32 C80.93 32 87.86 32 95 32 C95 30.35 95 28.7 95 27 C88.73 27 82.46 27 76 27 C75.34 25.35 74.68 23.7 74 22 C68.2559 18.1706 64.057 19.7296 59 24 Z " fill="#000000" transform="translate(159,128)"/>
</svg>
