<?xml version="1.0" encoding="UTF-8"?>
<!-- Generator: visioncortex VTracer 0.6.12 -->
<svg version="1.1" xmlns="http://www.w3.org/2000/svg" width="320" height="187">
<path d="M0,0 L4,0 L2,11 L0,17 L-4,17 L-3,9 Z " fill="#000000" transform="translate(102,0)"/>
<path d="M0,0 L36,0 L35,8 L32,22 L40,22 L39,30 L33,54 L33,60 L54,60 L55,58 L57,54 L65,22 L71,22 L69,33 L64,53 L64,60 L85,60 L87,49 L89,49 L91,42 L96,42 L94,51 L94,60 L115,60 L116,56 L117,60 L158,60 L159,57 L161,53 L162,45 L162,41 L143,41 L145,38 L146,39 L146,38 L161,38 L162,34 L164,30 L164,21 L150,21 L151,18 L170,17 L174,1 L175,0 L320,0 L320,63 L302,63 L301,65 L299,69 L297,76 L295,72 L293,68 L291,65 L291,63 L272,63 L271,69 L269,69 L268,73 L264,71 L257,65 L253,63 L236,63 L226,67 L221,71 L219,71 L218,63 L198,63 L196,71 L194,70 L195,63 L151,63 L150,66 L147,70 L139,64 L136,62 L119,62 L116,64 L105,70 L100,74 L100,63 L79,63 L78,62 L77,65 L73,70 L61,88 L59,88 L60,93 L58,95 L57,88 L57,70 L55,70 L55,63 L32,63 L30,74 L28,78 L26,82 L17,118 L17,124 L38,124 L39,122 L43,120 L44,124 L58,124 L58,125 L31,126 L32,128 L30,130 L27,134 L11,163 L4,177 L3,179 L0,181 Z M33,4 L34,7 Z M32,8 L33,11 Z M31,12 L32,15 Z M30,16 L31,20 Z M165,21 L165,26 L166,26 L166,21 Z M163,41 L164,45 Z M87,54 L88,57 Z M92,55 L93,59 Z M62,57 L63,60 Z M86,57 L87,60 Z M31,58 Z M32,61 L32,62 L54,62 L54,61 Z M198,61 L198,62 L218,62 L218,61 Z M242,61 L242,62 L248,62 L248,61 Z M272,61 L272,62 L291,62 L291,61 Z M30,64 Z M101,64 L102,67 Z M219,64 L220,67 Z M29,66 L30,69 Z M28,70 L29,73 Z M58,79 L58,87 L59,87 L59,79 Z M15,122 Z " fill="#000000" transform="translate(0,0)"/>
<path d="M0,0 L8,0 L12,2 L-4,2 Z " fill="#000000" transform="translate(124,62)"/>
<path d="M0,0 L2,1 L1,9 L-1,8 Z " fill="#000000" transform="translate(192,74)"/>
<path d="M0,0 L1,0 L1,110 L-44,110 L-40,94 L-25,71 L-24,68 L-20,63 L-14,54 L-14,50 L-34,50 L-34,49 L-13,49 L-13,44 L-11,44 Z M-13,51 L-12,53 Z " fill="#000000" transform="translate(319,77)"/>
<path d="M0,0 L7,1 L10,3 L10,10 L5,15 L3,15 L2,17 L-4,15 L-5,9 L-2,4 Z " fill="#000000" transform="translate(118,85)"/>
<path d="M0,0 L12,0 L12,1 L1,1 L2,2 L12,2 L4,35 L4,39 L25,39 L27,35 L29,31 L33,33 L39,38 L48,41 L46,43 L36,47 L32,50 L30,50 L30,44 L11,43 L10,45 L8,49 L5,60 L3,57 L2,49 L1,45 L0,43 L-19,44 L-24,64 L-26,61 L-21,43 L-62,43 L-63,46 L-65,50 L-69,48 L-75,44 L-82,43 L-94,44 L-100,45 L-111,52 L-119,61 L-120,65 L-122,69 L-123,58 L-123,43 L-145,43 L-145,42 L-119,42 L-118,38 L-115,37 L-113,35 L-113,40 L-92,40 L-91,31 L-89,27 L-84,32 L-79,37 L-73,40 L-60,40 L-60,41 L-9,41 L-8,37 L-6,33 L-6,24 Z M0,5 L1,8 Z M-1,9 L0,12 Z M-2,13 L-1,16 Z M-3,17 L-2,20 Z M-4,21 L-3,25 Z M-5,25 L-4,29 Z M-90,32 L-89,35 Z M-91,36 L-90,39 Z M-113,41 L-113,42 L-90,43 L-93,41 Z M-89,41 L-89,42 L-82,42 L-82,41 Z M5,41 L5,42 L29,42 L29,41 Z M-122,44 L-122,57 L-121,57 L-121,44 Z M3,49 L4,52 Z M4,53 L5,56 Z " fill="#000000" transform="translate(178,84)"/>
<path d="M0,0 L8,1 L6,10 L2,14 L-5,15 L-8,13 L-8,6 L-3,1 Z " fill="#000000" transform="translate(238,86)"/>
<path d="M0,0 L1,4 L-2,16 L-2,24 L18,24 L18,25 L-28,25 L-25,23 L-15,18 L-6,10 Z M-4,20 L-3,24 Z " fill="#000000" transform="translate(150,100)"/>
<path d="M0,0 L2,1 L4,9 L6,9 L6,13 L1,17 L-6,28 L-7,31 L-8,33 L-10,26 L-11,15 L-32,15 L-33,19 L-34,17 L-45,14 L-42,12 L-28,5 L-24,2 L-24,12 L-4,12 L-3,8 L-1,4 Z M-26,9 L-25,12 Z M-32,13 L-32,14 L-5,14 L-5,13 Z M-10,16 L-9,19 Z M-9,19 L-9,25 L-8,25 L-8,19 Z " fill="#000000" transform="translate(281,112)"/>
<path d="M0,0 L17,0 L17,1 L0,1 Z " fill="#000000" transform="translate(288,124)"/>
<path d="M0,0 L17,0 L17,1 L0,1 Z " fill="#000000" transform="translate(135,146)"/>
<path d="M0,0 L17,0 L16,4 L14,6 L14,1 L0,1 Z " fill="#000000" transform="translate(134,148)"/>
<path d="M0,0 L1,2 L5,4 L5,5 L-2,5 L-3,14 L-5,17 L-11,14 L-11,7 L-6,2 Z M-4,7 L-3,9 Z M-5,9 L-4,13 Z " fill="#000000" transform="translate(89,149)"/>
<path d="M0,0 L8,0 L11,1 L11,4 L28,4 L29,9 L9,9 L4,13 L-4,13 L-5,12 L-5,5 Z M10,7 Z " fill="#000000" transform="translate(223,151)"/>
<path d="M0,0 L19,0 L19,1 L0,1 Z " fill="#000000" transform="translate(88,155)"/>
<path d="M0,0 L2,3 L1,6 L-15,5 L-15,4 L0,4 Z " fill="#000000" transform="translate(145,162)"/>
<path d="M0,0 L17,0 L17,1 L0,1 Z " fill="#000000" transform="translate(129,168)"/>
<path d="M0,0 L1,4 L-3,19 L-5,19 L-1,1 Z " fill="#000000" transform="translate(147,168)"/>
<path d="M0,0 L2,3 L-2,19 L-20,19 L-15,15 L-7,9 L-1,2 Z " fill="#000000" transform="translate(252,168)"/>
<path d="M0,0 L2,3 L3,11 L2,13 L-4,13 L-3,5 L-1,1 Z M0,4 L1,7 Z M1,8 L2,11 Z " fill="#000000" transform="translate(170,174)"/>
<path d="M0,0 L8,6 L8,7 L-2,7 Z " fill="#000000" transform="translate(197,180)"/>
<path d="M0,0 L1,4 L0,5 L-7,5 L-3,2 Z " fill="#000000" transform="translate(99,182)"/>
<path d="M0,0 L12,0 L12,2 L0,2 Z " fill="#000000" transform="translate(23,185)"/>
</svg>
