<?xml version="1.0" encoding="utf-8"?>
<svg xmlns="http://www.w3.org/2000/svg" viewBox="0 0 1000 1000" width="0" height="0" style="position:absolute" aria-hidden="true">
  <defs>
    <clipPath id="m_horizon_wipe" clipPathUnits="objectBoundingBox">
      <path transform="scale(0.001)" d="M 0,510 C 20,480 40,460 60,470 C 80,480 100,535 130,520 C 150,510 170,455 190,460 C 210,465 230,545 260,540 C 290,535 300,495 330,500 C 360,505 370,445 400,450 C 430,455 450,555 480,550 C 510,545 530,485 560,490 C 590,495 610,525 640,510 C 670,495 680,435 710,440 C 740,445 760,535 790,530 C 820,525 840,475 870,480 C 900,485 920,555 950,550 C 980,545 990,495 1000,510 L 1000,1000 L 0,1000 Z" />
    </clipPath>

    <clipPath id="m_torn_diagonal" clipPathUnits="objectBoundingBox">
      <path transform="scale(0.001)" d="M 0,150 C 20,180 30,220 40,210 C 50,200 90,190 110,200 C 130,210 120,270 140,280 C 160,290 190,260 210,270 C 230,280 250,340 260,350 C 270,360 280,390 290,380 C 300,370 340,350 360,360 C 380,370 370,440 390,450 C 410,460 440,480 460,490 C 480,500 490,460 510,470 C 530,480 520,550 540,560 C 560,570 590,540 610,550 C 630,560 620,610 640,620 C 660,630 690,650 710,660 C 730,670 720,640 740,650 C 760,660 790,720 810,730 C 830,740 840,780 860,770 C 880,760 870,740 890,750 C 910,760 940,820 960,830 C 980,840 990,840 1000,850 L 1000,1000 L 0,1000 Z" />
    </clipPath>

    <clipPath id="m_curtain_up" clipPathUnits="objectBoundingBox">
      <path transform="scale(0.001)" d="M 0,500 C 30,540 50,590 80,580 C 110,570 130,410 160,420 C 190,430 210,600 240,590 C 270,580 290,400 320,410 C 350,420 370,540 400,550 C 430,560 450,440 480,450 C 510,460 530,610 560,600 C 590,590 610,390 640,400 C 670,410 690,570 720,560 C 750,550 770,430 800,440 C 830,450 850,580 880,570 C 910,560 930,450 960,460 C 980,465 990,490 1000,500 L 1000,0 L 0,0 Z" />
    </clipPath>

    <clipPath id="m_iris_close" clipPathUnits="objectBoundingBox">
      <path transform="scale(0.001)" d="M 880,500 C 880,560 830,600 785,665 C 740,730 760,780 710,863 C 660,946 580,850 500,850 C 420,850 360,910 285,872 C 210,834 250,750 205,670 C 160,590 90,580 90,500 C 90,420 170,410 222,340 C 274,270 230,200 280,118 C 330,36 420,140 500,140 C 580,140 620,100 695,162 C 770,224 740,270 794,330 C 848,390 880,440 880,500 Z" />
    </clipPath>

    <clipPath id="m_notch_card" clipPathUnits="objectBoundingBox">
      <path transform="scale(0.001)" d="M 50,110 C 75,95 85,65 110,50 C 370,54 630,47 890,50 C 905,75 935,85 950,110 C 946,370 953,630 950,890 C 925,905 915,935 890,950 C 630,946 370,953 110,950 C 95,925 65,915 50,890 C 54,630 47,370 50,110 Z" />
    </clipPath>
  </defs>
</svg>
